<?xml version="1.0" encoding="UTF-8"?>
<svg xmlns="http://www.w3.org/2000/svg" viewBox="0 0 822.96 280.8">
  <defs>
    <style>
      .cls-1 {
        isolation: isolate;
      }

      .cls-2, .cls-3 {
        fill: #fea4a4;
      }

      .cls-2, .cls-4 {
        mix-blend-mode: multiply;
      }
    </style>
  </defs>
  <g class="cls-1">
    <g id="Layer_1" data-name="Layer 1">
      <g>
        <circle class="cls-2" cx="416.69" cy="140.4" r="126.36"></circle>
        <g class="cls-4">
          <path class="cls-3" d="m397.69,14.04c-68.34,1.26-124.73,57.8-124.36,126.36-.64,58.56,42.57,111.48,99.81,123.42,7.96,1.74,16.39,2.65,24.55,2.94-50.5,1.8-99.48-30.51-118.5-77.27-35.15-83.69,27.41-177.52,118.5-175.45h0Z"></path>
        </g>
      </g>
      <g class="cls-4">
        <path class="cls-3" d="m255.8,150.76c-82.43,2.74-165.97,2.76-248.4,0,82.43-2.76,165.97-2.74,248.4,0h0Z"></path>
      </g>
      <g class="cls-4">
        <path class="cls-3" d="m815.24,150.76c-82.43,2.74-165.97,2.76-248.4,0,82.43-2.76,165.97-2.74,248.4,0h0Z"></path>
      </g>
    </g>
  </g>
</svg>
