<?xml version="1.0" encoding="UTF-8"?>
<svg xmlns="http://www.w3.org/2000/svg" id="Layer_1" data-name="Layer 1" viewBox="0 0 467.28 577.44">
  <defs>
    <style>
      .cls-1 {
        fill: #fbb983;
      }
    </style>
  </defs>
  <path class="cls-1" d="m175.04,399.13c-14.1-8.72-18.96-26.81-12.3-41.99,6.06-13.8,20.49-31.34,54.21-44.91,65.38-26.3,105.61,64.52,64.62,97.09-40.99,32.57-45.64-24.86-76.86-9.75-12.49,6.05-22.34,4.08-29.67-.45Z"></path>
  <path class="cls-1" d="m256.37,103.84c-14.1-8.71-18.96-26.81-12.3-41.99,6.06-13.8,20.49-31.34,54.22-44.91,65.38-26.3,105.61,64.52,64.62,97.09-40.99,32.57-45.64-24.86-76.86-9.75-12.49,6.04-22.34,4.08-29.67-.45Z"></path>
  <path class="cls-1" d="m302.63,539.39c-14.09-8.71-18.96-26.81-12.29-41.98,6.06-13.8,20.49-31.34,54.22-44.91,65.38-26.3,105.61,64.52,64.62,97.08-40.99,32.57-45.64-24.86-76.86-9.75-12.49,6.05-22.34,4.08-29.67-.45Z"></path>
  <path class="cls-1" d="m118.39,236.54c-14.09-8.71-18.96-26.81-12.29-41.98,6.06-13.8,20.49-31.34,54.22-44.91,65.38-26.3,105.61,64.52,64.62,97.09-40.99,32.57-45.64-24.86-76.86-9.74-12.49,6.04-22.35,4.08-29.68-.45Z"></path>
  <path class="cls-1" d="m329.07,287.78c-14.09-8.71-18.96-26.81-12.3-41.98,6.06-13.8,20.49-31.34,54.22-44.91,65.38-26.3,105.61,64.52,64.62,97.09-40.99,32.57-45.64-24.86-76.86-9.75-12.49,6.05-22.34,4.08-29.67-.45Z"></path>
  <path class="cls-1" d="m32.52,534.06c-14.09-8.71-18.96-26.81-12.3-41.98,6.06-13.8,20.49-31.34,54.22-44.91,65.38-26.3,105.61,64.52,64.62,97.09-40.99,32.57-45.64-24.86-76.86-9.75-12.49,6.05-22.34,4.08-29.67-.45Z"></path>
</svg>
