<svg xmlns="http://www.w3.org/2000/svg" xmlns:xlink="http://www.w3.org/1999/xlink" viewBox="0 0 789.63 595.28"><defs><style>      .cls-1 {        fill: url(#linear-gradient-3);      }      .cls-1, .cls-2, .cls-3, .cls-4, .cls-5, .cls-6, .cls-7, .cls-8, .cls-9, .cls-10, .cls-11, .cls-12, .cls-13, .cls-14, .cls-15, .cls-16, .cls-17, .cls-18, .cls-19, .cls-20, .cls-21, .cls-22, .cls-23, .cls-24, .cls-25, .cls-26, .cls-27, .cls-28, .cls-29, .cls-30 {        mix-blend-mode: multiply;      }      .cls-2 {        fill: url(#linear-gradient-24);      }      .cls-3 {        fill: url(#linear-gradient-31);      }      .cls-4 {        fill: url(#linear-gradient-29);      }      .cls-5 {        fill: url(#linear-gradient-22);      }      .cls-6 {        fill: url(#linear-gradient-13);      }      .cls-7 {        fill: url(#linear-gradient-11);      }      .cls-8 {        fill: url(#linear-gradient-10);      }      .cls-9 {        fill: url(#linear-gradient-19);      }      .cls-10 {        fill: url(#linear-gradient-4);      }      .cls-11 {        fill: url(#linear-gradient-18);      }      .cls-12 {        fill: url(#linear-gradient-16);      }      .cls-13 {        fill: url(#linear-gradient-17);      }      .cls-14 {        fill: url(#linear-gradient-21);      }      .cls-31 {        isolation: isolate;      }      .cls-15 {        fill: url(#linear-gradient-28);      }      .cls-16 {        fill: url(#linear-gradient-26);      }      .cls-17 {        fill: url(#linear-gradient-6);      }      .cls-18 {        fill: url(#linear-gradient-5);      }      .cls-19 {        fill: url(#linear-gradient-25);      }      .cls-20 {        fill: url(#linear-gradient-9);      }      .cls-21 {        fill: url(#linear-gradient-30);      }      .cls-22 {        fill: url(#linear-gradient-8);      }      .cls-32 {        fill: #fff;        filter: url(#drop-shadow-1);      }      .cls-23 {        fill: url(#linear-gradient-15);      }      .cls-24 {        fill: url(#linear-gradient-2);      }      .cls-25 {        fill: url(#linear-gradient-27);      }      .cls-26 {        fill: url(#linear-gradient-12);      }      .cls-27 {        fill: url(#linear-gradient-7);      }      .cls-33 {        fill: url(#linear-gradient);      }      .cls-28 {        fill: url(#linear-gradient-23);      }      .cls-29 {        fill: url(#linear-gradient-14);      }      .cls-30 {        fill: url(#linear-gradient-20);      }    </style><filter id="drop-shadow-1"><feGaussianBlur stdDeviation="8.5"></feGaussianBlur></filter><linearGradient id="linear-gradient" x1="819.23" y1="-70.6" x2="-34.94" y2="550.93" gradientUnits="userSpaceOnUse"><stop offset="0" stop-color="#0e93b6"></stop><stop offset=".12" stop-color="#38a7c4" stop-opacity=".83"></stop><stop offset=".36" stop-color="#8bcedf" stop-opacity=".49"></stop><stop offset=".49" stop-color="#acdeea" stop-opacity=".36"></stop><stop offset=".73" stop-color="#5cb9cf" stop-opacity=".69"></stop><stop offset=".97" stop-color="#1398b8" stop-opacity=".99"></stop></linearGradient><linearGradient id="linear-gradient-2" x1="427.2" y1="182.28" x2="784.29" y2="182.28" gradientUnits="userSpaceOnUse"><stop offset=".49" stop-color="#acdeea" stop-opacity=".36"></stop><stop offset=".8" stop-color="#45adc8" stop-opacity=".77"></stop><stop offset="1" stop-color="#0e93b6"></stop></linearGradient><linearGradient id="linear-gradient-3" x1="65.79" y1="182.84" x2="361.85" y2="182.84" xlink:href="#linear-gradient-2"></linearGradient><linearGradient id="linear-gradient-4" x1="49.91" y1="267.72" x2="391.62" y2="267.72" xlink:href="#linear-gradient-2"></linearGradient><linearGradient id="linear-gradient-5" x1="735.55" y1="220.99" x2="367.17" y2="313.62" xlink:href="#linear-gradient-2"></linearGradient><linearGradient id="linear-gradient-6" x1="408.81" y1="460.7" x2="564.97" y2="460.7" xlink:href="#linear-gradient-2"></linearGradient><linearGradient id="linear-gradient-7" x1="225.2" y1="460.89" x2="380.46" y2="460.89" xlink:href="#linear-gradient-2"></linearGradient><linearGradient id="linear-gradient-8" x1="133.73" y1="437.09" x2="367.76" y2="437.09" xlink:href="#linear-gradient-2"></linearGradient><linearGradient id="linear-gradient-9" x1="472.69" y1="382.07" x2="658.17" y2="519.95" xlink:href="#linear-gradient-2"></linearGradient><linearGradient id="linear-gradient-10" x1="235.26" y1="264.88" x2="382" y2="264.88" xlink:href="#linear-gradient-2"></linearGradient><linearGradient id="linear-gradient-11" x1="408.46" y1="265.24" x2="555.56" y2="265.24" xlink:href="#linear-gradient-2"></linearGradient><linearGradient id="linear-gradient-12" x1="476.76" y1="112.48" x2="739.99" y2="112.48" xlink:href="#linear-gradient-2"></linearGradient><linearGradient id="linear-gradient-13" x1="87.29" y1="112.26" x2="311.89" y2="112.26" xlink:href="#linear-gradient-2"></linearGradient><linearGradient id="linear-gradient-14" x1="677.15" y1="101.84" x2="768.4" y2="101.84" xlink:href="#linear-gradient-2"></linearGradient><linearGradient id="linear-gradient-15" x1="21.92" y1="101.58" x2="113.14" y2="101.58" xlink:href="#linear-gradient-2"></linearGradient><linearGradient id="linear-gradient-16" x1="507.39" y1="396.53" x2="655.72" y2="396.53" xlink:href="#linear-gradient-2"></linearGradient><linearGradient id="linear-gradient-17" x1="134.67" y1="395.76" x2="284.56" y2="395.76" xlink:href="#linear-gradient-2"></linearGradient><linearGradient id="linear-gradient-18" x1="127.5" y1="326.1" x2="351.18" y2="326.1" xlink:href="#linear-gradient-2"></linearGradient><linearGradient id="linear-gradient-19" x1="443.03" y1="326.69" x2="662.91" y2="326.69" xlink:href="#linear-gradient-2"></linearGradient><linearGradient id="linear-gradient-20" x1="676.27" y1="201" x2="767.5" y2="201" xlink:href="#linear-gradient-2"></linearGradient><linearGradient id="linear-gradient-21" x1="23.6" y1="201.27" x2="113.89" y2="201.27" xlink:href="#linear-gradient-2"></linearGradient><linearGradient id="linear-gradient-22" x1="223.71" y1="390.45" x2="373.4" y2="390.45" xlink:href="#linear-gradient-2"></linearGradient><linearGradient id="linear-gradient-23" x1="414.3" y1="391.72" x2="567.57" y2="391.72" xlink:href="#linear-gradient-2"></linearGradient><linearGradient id="linear-gradient-24" x1="123.47" y1="425.36" x2="194.18" y2="425.36" xlink:href="#linear-gradient-2"></linearGradient><linearGradient id="linear-gradient-25" x1="596.28" y1="425.86" x2="666.84" y2="425.86" xlink:href="#linear-gradient-2"></linearGradient><linearGradient id="linear-gradient-26" x1="134.1" y1="528.35" x2="250.11" y2="528.35" xlink:href="#linear-gradient-2"></linearGradient><linearGradient id="linear-gradient-27" x1="577.37" y1="528.41" x2="657.22" y2="528.41" xlink:href="#linear-gradient-2"></linearGradient><linearGradient id="linear-gradient-28" x1="56.97" y1="296.53" x2="165.49" y2="296.53" xlink:href="#linear-gradient-2"></linearGradient><linearGradient id="linear-gradient-29" x1="625.06" y1="297.04" x2="733.39" y2="297.04" xlink:href="#linear-gradient-2"></linearGradient><linearGradient id="linear-gradient-30" x1="492.84" y1="546.38" x2="568.06" y2="546.38" xlink:href="#linear-gradient-2"></linearGradient><linearGradient id="linear-gradient-31" x1="222.49" y1="544.8" x2="294.39" y2="544.8" xlink:href="#linear-gradient-2"></linearGradient></defs><g class="cls-31"><g id="Layer_1" data-name="Layer 1"><g><path class="cls-32" d="m255.03,350.33c-.09.83-.18,1.65-.27,2.48-43.79,5.97-87.58,11.93-132.27,18.02-2.26,35.02-4.59,68.35-6.29,101.72-.17,3.41,2.93,7.49,5.46,10.44,17.81,20.73,35.83,41.29,53.87,61.83,13.01,14.82,26.16,29.53,39.65,44.74,27.36-10.66,53.6-21.29,80.17-31.04,9.43-3.46,15.07-9.06,19.1-18.14,24.28-54.65,48.98-109.11,73.62-163.59,1.72-3.79,4.13-7.27,7.27-12.72,2.75,5.4,4.54,8.6,6.05,11.92,22.55,49.79,45.91,99.24,67.18,149.58,8.59,20.33,19.69,34.77,41.99,39.66,8.89,1.95,17.19,6.59,25.79,9.92,12.68,4.92,25.38,9.76,37.88,14.57,2.07-1.71,3.54-2.62,4.63-3.86,30.68-34.89,61.41-69.75,91.82-104.88,2.36-2.73,3.54-7.42,3.45-11.16-.3-13.31-1.27-26.61-2.22-39.89-1.36-19.01-2.93-38.01-4.53-58.65-44.99-6.09-89.36-12.1-133.73-18.1,2.6-1.95,5.19-2.7,7.83-2.93,41.85-3.64,83.69-7.42,125.58-10.63,9.14-.7,16-3.46,22.05-10.62,18.51-21.93,37.78-43.21,56.32-65.12,3.8-4.49,6.85-10.31,8.24-16,7.46-30.5,14.48-61.11,21.15-91.79,1.18-5.41,1.08-11.59-.25-16.96-9.92-40.1-20.27-80.09-30.57-120.09-.98-3.8-2.57-7.45-4.34-12.47-4.39,2.42-7.67,3.98-10.7,5.94-86.85,56.32-173.64,112.75-260.59,168.93-7.6,4.91-12.31,10.94-15.41,19.43-17.34,47.5-35.11,94.85-52.81,142.22-1.09,2.92-2.73,5.63-5.27,10.8-2.91-6.99-4.85-11.27-6.48-15.66-17.41-46.75-34.6-93.58-52.37-140.18-2.15-5.64-6.36-11.64-11.31-14.88C236.98,125.75,148.95,68.72,60.93,11.67c-2.97-1.92-6.32-3.25-10.14-5.18-1.63,3.69-3.06,6.03-3.71,8.56-10.93,42.66-21.79,85.33-32.55,128.03-.64,2.54-.78,5.47-.2,8.01,7.63,33.27,15.34,66.53,23.33,99.72.91,3.79,3.01,7.65,5.56,10.62,20.26,23.58,40.63,47.08,61.38,70.23,2.85,3.18,7.86,5.72,12.12,6.15,28.87,2.98,57.81,5.29,86.73,7.86,17.2,1.52,34.39,3.11,51.58,4.66Z"></path><g><path class="cls-33" d="m255.03,350.33c-17.19-1.56-34.38-3.14-51.58-4.66-28.91-2.56-57.85-4.88-86.73-7.86-4.26-.44-9.27-2.97-12.12-6.15-20.75-23.15-41.11-46.65-61.38-70.23-2.55-2.97-4.65-6.83-5.56-10.62-7.98-33.19-15.7-66.45-23.33-99.72-.58-2.53-.44-5.47.2-8.01C25.29,100.38,36.15,57.7,47.09,15.05c.65-2.53,2.08-4.87,3.71-8.56,3.82,1.93,7.17,3.26,10.14,5.18,88.01,57.06,176.04,114.08,263.82,171.5,4.95,3.24,9.16,9.25,11.31,14.88,17.77,46.61,34.96,93.44,52.37,140.18,1.63,4.39,3.58,8.67,6.48,15.66,2.55-5.17,4.18-7.88,5.27-10.8,17.69-47.37,35.47-94.72,52.81-142.22,3.1-8.48,7.81-14.52,15.41-19.43,86.95-56.18,173.73-112.61,260.59-168.93,3.02-1.96,6.31-3.52,10.7-5.94,1.77,5.02,3.36,8.67,4.34,12.47,10.3,40,20.65,79.99,30.57,120.09,1.33,5.37,1.42,11.55.25,16.96-6.68,30.68-13.69,61.29-21.15,91.79-1.39,5.7-4.45,11.52-8.24,16-18.54,21.91-37.81,43.19-56.32,65.12-6.04,7.16-12.91,9.92-22.05,10.62-41.89,3.2-83.73,6.99-125.58,10.63-2.64.23-5.23.98-7.83,2.93,44.37,6.01,88.75,12.01,133.73,18.1,1.6,20.64,3.17,39.64,4.53,58.65.95,13.28,1.91,26.58,2.22,39.89.09,3.74-1.09,8.43-3.45,11.16-30.41,35.13-61.14,69.98-91.82,104.88-1.09,1.24-2.56,2.15-4.63,3.86-12.5-4.8-25.21-9.65-37.88-14.57-8.6-3.34-16.9-7.97-25.79-9.92-22.3-4.89-33.4-19.33-41.99-39.66-21.27-50.34-44.62-99.79-67.18-149.58-1.5-3.32-3.29-6.52-6.05-11.92-3.14,5.45-5.56,8.93-7.27,12.72-24.64,54.48-49.34,108.94-73.62,163.59-4.03,9.08-9.67,14.68-19.1,18.14-26.57,9.75-52.81,20.37-80.17,31.04-13.49-15.21-26.63-29.92-39.65-44.74-18.04-20.54-36.06-41.09-53.87-61.83-2.54-2.95-5.63-7.04-5.46-10.44,1.69-33.37,4.03-66.7,6.29-101.72,44.69-6.09,88.48-12.06,132.27-18.02.09-.83.18-1.65.27-2.48ZM725.83,31.34c-.52-.32-1.05-.64-1.57-.96-99.02,101.14-198.04,202.27-297.07,303.41,2.56.82,3.81.29,4.93-.44,75.79-48.94,151.62-97.82,227.21-147.07,4.47-2.91,8.14-8.32,10.24-13.38,10.75-25.86,20.88-51.98,31.19-78.02,8.38-21.17,16.71-42.36,25.07-63.53Zm-657.93.36c-.71.59-1.41,1.19-2.12,1.78,1.03,2.84,1.98,5.71,3.09,8.52,16.59,41.91,33.48,83.7,49.6,125.79,3.92,10.23,10.18,16.89,19.21,22.66,57.85,36.96,115.42,74.36,173.09,111.61,16.49,10.65,32.99,21.29,49.49,31.94.53-.67,1.06-1.33,1.59-2C263.87,231.9,165.89,131.8,67.91,31.69Zm53.62,156.79c-23.63,21.38-46.65,42.21-71.61,64.8,106.63,31.79,210.38,62.73,314.13,93.67.31-.69.63-1.38.94-2.07-80.85-51.94-161.69-103.87-243.47-156.4Zm305.29,156.08c.45.81.9,1.63,1.35,2.44,103.14-30.77,206.29-61.54,312.22-93.14-25.48-23.04-48.58-43.93-71.66-64.79-81.71,52.52-161.81,104-241.91,155.49Zm59.24,201.98c27.03-14.37,52.15-27.72,78.91-41.95-52.38-44.08-103.27-86.9-154.17-129.73-.66.51-1.33,1.03-1.99,1.54,25.43,56.02,50.87,112.03,77.25,170.14Zm-105.59-168.52c-.99-.69-1.99-1.38-2.98-2.07-50.24,42.26-100.48,84.52-152.28,128.09,27.32,14.44,52.53,27.76,79.1,41.8,25.83-56.91,50.99-112.37,76.16-167.82Zm-12.71-2.43c-.42-.68-.83-1.36-1.25-2.04-77.59,33-155.18,66-232.77,99,.11.94.21,1.87.32,2.81,28.24,8.46,56.48,16.92,84.34,25.27,50.67-42.41,100.01-83.73,149.36-125.04Zm287.64,100.54c.04-1.15.08-2.3.12-3.45-76.61-32.55-153.23-65.1-229.84-97.65-.43.89-.85,1.77-1.28,2.66,49.12,41.1,98.25,82.19,147.74,123.59,28.12-8.5,55.69-16.83,83.26-25.16Zm-276.03-135.52c.88-.44,1.76-.88,2.64-1.32-18.16-48.39-36.33-96.78-54.79-145.95-31.09-1.43-61.06-2.8-91.03-4.17-.31,1.14-.62,2.29-.92,3.43,48.03,49.34,96.07,98.68,144.1,148.02Zm29.09-.93c.92.43,1.84.87,2.76,1.3,48.11-49.47,96.23-98.93,144.34-148.4-.58-1.02-1.17-2.05-1.75-3.07-30.11,1.56-60.23,3.12-90.92,4.7-18.41,49.19-36.42,97.33-54.43,145.47ZM701.21,42.86c-.65-.78-1.3-1.57-1.95-2.35-74.17,47.91-148.34,95.81-222.51,143.72,26.63.77,52.46-.69,78.3-1.76,8.02-.33,13.97-3.29,19.6-9.1,39.93-41.23,80.16-82.16,120.26-123.21,2.24-2.29,4.2-4.86,6.29-7.3Zm-390.19,142.89c.29-1.08.58-2.15.88-3.23-74.28-47.92-148.56-95.84-222.84-143.76-.59.72-1.18,1.43-1.76,2.15,45.58,46.74,91.16,93.48,136.65,140.14,29.42,1.59,58.25,3.15,87.08,4.7Zm366.13-11.26c.97.72,1.93,1.44,2.9,2.15,29.31-10.42,58.62-20.84,88.36-31.42-10.39-40.64-20.3-79.38-30.2-118.12-.81-.03-1.62-.06-2.43-.08-19.54,49.16-39.08,98.31-58.62,147.47ZM54.7,26.98c-.96.13-1.92.25-2.88.38-9.86,38.68-19.72,77.35-29.91,117.3,30.36,10.77,59.63,21.14,88.89,31.52.78-.79,1.56-1.58,2.34-2.37-19.48-48.94-38.96-97.89-58.44-146.83Zm534.82,408.98c21.79-19.4,42.91-38.19,66.2-58.92-51.09-6.94-98.83-13.43-146.56-19.92-.59,1.28-1.17,2.57-1.76,3.85,27,24.66,54.01,49.32,82.13,74.99Zm-388.72-.57c28.81-26.36,56.28-51.49,83.76-76.63-.46-.87-.92-1.75-1.38-2.62-48.51,6.68-97.03,13.35-148.51,20.44,23.51,20.91,44.32,39.42,66.13,58.82Zm150.38-83.53c-2.72-1.9-3.42-2.69-4.27-2.94-54.01-15.99-108.02-31.98-162.08-47.79-2.78-.81-6.6-1.24-8.92.02-16.29,8.9-32.31,18.28-48.41,27.51.25,1,.5,2,.75,3,73.57,6.67,147.14,13.33,222.94,20.2Zm310.66-19.52c.35-.99.71-1.99,1.06-2.98-13.75-8-27.69-15.69-41.17-24.13-6.66-4.17-12.78-4.84-20.25-2.58-35.26,10.66-70.65,20.88-105.97,31.3-17.51,5.17-34.99,10.44-52.49,15.66.15.8.3,1.6.45,2.4,72.79-6.56,145.57-13.12,218.36-19.68Zm14.43-146.41c23.83,21.34,45.89,41.09,69.51,62.24,7.4-32.17,14.32-62.2,21.71-94.34-31.6,11.12-60.33,21.23-91.22,32.1ZM26.55,154.61c-.98.73-1.96,1.45-2.95,2.18,6.75,29.38,13.49,58.75,20.94,91.15,24.1-21.77,45.87-41.43,69.35-62.64-30.67-10.78-59.01-20.73-87.34-30.69Zm197.16,269.41c.39.71.78,1.42,1.18,2.14,49.51-20.91,99.01-41.82,148.52-62.73-.28-1.01-.55-2.02-.83-3.03-23.07-1.95-46.12-4.04-69.21-5.66-2.63-.18-5.99,1.66-8.09,3.57-23.96,21.79-47.74,43.77-71.56,65.7Zm343.87,3.49c-2.62-3.5-3.46-5.09-4.71-6.24-21.81-20.14-43.43-40.5-65.75-60.07-4.05-3.55-11.07-5.49-16.6-5.27-18.73.74-37.42,2.72-56.12,4.37-2.41.21-4.74,1.24-10.1,2.72,52.11,21.92,101.36,42.64,153.27,64.48Zm-444.11,41.37c24.89-10.56,46.85-19.87,70.71-29.99-22.28-19.6-42.47-37.35-64.88-57.06-2.04,30.53-3.84,57.3-5.83,87.05Zm543.37.58c-2.06-30.19-3.91-57.25-5.96-87.19-22.66,20.12-42.82,38.01-64.6,57.35,24.05,10.17,45.78,19.37,70.56,29.85Zm-531.05,14.21c-.56.87-1.13,1.74-1.69,2.6,25.24,28.92,50.48,57.83,75.72,86.75,1.07-.43,2.13-.86,3.2-1.29v-65c-25.52-7.62-51.37-15.34-77.23-23.06Zm441.58,88.45c1.22.34,2.43.67,3.65,1.01,25.4-29.15,50.8-58.3,76.21-87.45-.41-.66-.82-1.33-1.24-1.99-26.58,7.98-53.16,15.96-78.62,23.6v64.83ZM111.96,329.21c18.72-10.86,36.13-20.96,53.53-31.06-.23-1-.46-2-.69-3-35.5-10.44-70.99-20.87-106.49-31.31-.45.79-.89,1.58-1.34,2.37,18.04,20.67,36.09,41.33,55,62.99Zm513.28-33.32c-.06,1.04-.13,2.09-.19,3.13,17.55,10.07,35.09,20.13,53.38,30.63,18.82-21.51,36.88-42.16,54.95-62.8-.49-.8-.97-1.61-1.46-2.41-35.56,10.48-71.12,20.97-106.68,31.45Zm-57.18,218.77c-1.23-.57-2.45-1.15-3.68-1.72-22.85,12.09-45.7,24.18-71.54,37.85,27.1,10.46,50.9,19.64,75.22,29.03v-65.15Zm-274.01,36.87c.11-1.05.23-2.11.34-3.16-22.97-12.06-45.93-24.12-71.91-37.76v68.38c24.43-9.37,48-18.41,71.57-27.46Z"></path><path class="cls-24" d="m725.83,31.34c-8.35,21.18-16.69,42.37-25.07,63.53-10.31,26.04-20.44,52.16-31.19,78.02-2.1,5.06-5.77,10.47-10.24,13.38-75.59,49.25-151.42,98.12-227.21,147.07-1.12.73-2.37,1.26-4.93.44,99.02-101.14,198.04-202.27,297.07-303.41.52.32,1.05.64,1.57.96Z"></path><path class="cls-1" d="m67.91,31.69c97.98,100.1,195.96,200.2,293.94,300.3-.53.67-1.06,1.33-1.59,2-16.5-10.65-33-21.29-49.49-31.94-57.67-37.25-115.24-74.65-173.09-111.61-9.03-5.77-15.29-12.43-19.21-22.66-16.12-42.09-33.01-83.88-49.6-125.79-1.11-2.81-2.06-5.68-3.09-8.52.71-.59,1.41-1.19,2.12-1.78Z"></path><path class="cls-10" d="m121.52,188.48c81.77,52.53,162.62,104.47,243.47,156.4-.31.69-.63,1.38-.94,2.07-103.75-30.94-207.51-61.88-314.13-93.67,24.96-22.59,47.98-43.42,71.61-64.8Z"></path><path class="cls-18" d="m426.82,344.56c80.1-51.48,160.2-102.97,241.91-155.49,23.08,20.87,46.18,41.76,71.66,64.79-105.93,31.6-209.07,62.37-312.22,93.14-.45-.81-.9-1.63-1.35-2.44Z"></path><path class="cls-17" d="m486.05,546.54c-26.38-58.1-51.81-114.12-77.25-170.14.66-.51,1.33-1.03,1.99-1.54,50.89,42.83,101.79,85.65,154.17,129.73-26.76,14.23-51.88,27.58-78.91,41.95Z"></path><path class="cls-27" d="m380.46,378.02c-25.17,55.45-50.33,110.91-76.16,167.82-26.57-14.04-51.79-27.37-79.1-41.8,51.8-43.57,102.04-85.83,152.28-128.09.99.69,1.99,1.38,2.98,2.07Z"></path><path class="cls-22" d="m367.76,375.59c-49.35,41.31-98.7,82.63-149.36,125.04-27.85-8.34-56.09-16.8-84.34-25.27-.11-.94-.21-1.87-.32-2.81,77.59-33,155.18-66,232.77-99,.42.68.83,1.36,1.25,2.04Z"></path><path class="cls-20" d="m655.4,476.13c-27.57,8.33-55.14,16.66-83.26,25.16-49.49-41.4-98.61-82.5-147.74-123.59.43-.89.85-1.77,1.28-2.66,76.61,32.55,153.23,65.1,229.84,97.65-.04,1.15-.08,2.3-.12,3.45Z"></path><path class="cls-8" d="m379.37,340.61c-48.03-49.34-96.07-98.68-144.1-148.02.31-1.14.62-2.29.92-3.43,29.97,1.37,59.94,2.75,91.03,4.17,18.46,49.17,36.62,97.56,54.79,145.95-.88.44-1.76.88-2.64,1.32Z"></path><path class="cls-7" d="m408.46,339.68c18.01-48.14,36.02-96.28,54.43-145.47,30.7-1.59,60.81-3.15,90.92-4.7.58,1.02,1.17,2.05,1.75,3.07-48.11,49.47-96.23,98.93-144.34,148.4-.92-.43-1.84-.87-2.76-1.3Z"></path><path class="cls-26" d="m701.21,42.86c-2.09,2.44-4.05,5-6.29,7.3-40.1,41.05-80.34,81.98-120.26,123.21-5.63,5.81-11.58,8.77-19.6,9.1-25.84,1.06-51.67,2.53-78.3,1.76,74.17-47.91,148.34-95.81,222.51-143.72.65.78,1.3,1.57,1.95,2.35Z"></path><path class="cls-6" d="m311.02,185.75c-28.83-1.56-57.66-3.11-87.08-4.7-45.49-46.65-91.07-93.39-136.65-140.14.59-.72,1.18-1.43,1.76-2.15,74.28,47.92,148.56,95.84,222.84,143.76-.29,1.08-.58,2.15-.88,3.23Z"></path><path class="cls-29" d="m677.15,174.49c19.54-49.16,39.08-98.31,58.62-147.47.81.03,1.62.06,2.43.08,9.9,38.74,19.81,77.48,30.2,118.12-29.74,10.57-59.05,20.99-88.36,31.42-.97-.72-1.93-1.44-2.9-2.15Z"></path><path class="cls-23" d="m54.7,26.98c19.48,48.94,38.96,97.89,58.44,146.83-.78.79-1.56,1.58-2.34,2.37-29.26-10.38-58.52-20.75-88.89-31.52,10.18-39.94,20.04-78.62,29.91-117.3.96-.13,1.92-.25,2.88-.38Z"></path><path class="cls-12" d="m589.52,435.95c-28.12-25.67-55.12-50.33-82.13-74.99.59-1.28,1.17-2.57,1.76-3.85,47.74,6.49,95.47,12.98,146.56,19.92-23.29,20.73-44.4,39.52-66.2,58.92Z"></path><path class="cls-13" d="m200.8,435.39c-21.81-19.4-42.63-37.91-66.13-58.82,51.49-7.08,100-13.76,148.51-20.44.46.87.92,1.75,1.38,2.62-27.47,25.13-54.94,50.27-83.76,76.63Z"></path><path class="cls-11" d="m351.18,351.86c-75.79-6.87-149.36-13.53-222.94-20.2-.25-1-.5-2-.75-3,16.11-9.23,32.12-18.62,48.41-27.51,2.31-1.26,6.14-.83,8.92-.02,54.06,15.82,108.07,31.8,162.08,47.79.85.25,1.55,1.04,4.27,2.94Z"></path><path class="cls-9" d="m661.84,332.33c-72.79,6.56-145.57,13.12-218.36,19.68-.15-.8-.3-1.6-.45-2.4,17.49-5.22,34.98-10.5,52.49-15.66,35.33-10.42,70.72-20.64,105.97-31.3,7.47-2.26,13.59-1.59,20.25,2.58,13.47,8.44,27.42,16.13,41.17,24.13-.35.99-.71,1.99-1.06,2.98Z"></path><path class="cls-30" d="m676.27,185.92c30.89-10.87,59.63-20.98,91.22-32.1-7.4,32.14-14.31,62.17-21.71,94.34-23.62-21.15-45.68-40.91-69.51-62.24Z"></path><path class="cls-14" d="m26.55,154.61c28.33,9.95,56.67,19.91,87.34,30.69-23.49,21.21-45.25,40.87-69.35,62.64-7.44-32.4-14.19-61.78-20.94-91.15.98-.73,1.96-1.45,2.95-2.18Z"></path><path class="cls-5" d="m223.71,424.02c23.83-21.93,47.6-43.91,71.56-65.7,2.1-1.91,5.46-3.76,8.09-3.57,23.09,1.62,46.15,3.71,69.21,5.66.28,1.01.55,2.02.83,3.03-49.51,20.91-99.01,41.82-148.52,62.73-.39-.71-.78-1.42-1.18-2.14Z"></path><path class="cls-28" d="m567.57,427.51c-51.92-21.84-101.16-42.56-153.27-64.48,5.36-1.48,7.69-2.51,10.1-2.72,18.69-1.65,37.38-3.64,56.12-4.37,5.53-.22,12.55,1.72,16.6,5.27,22.32,19.57,43.94,39.93,65.75,60.07,1.25,1.15,2.09,2.74,4.71,6.24Z"></path><path class="cls-2" d="m123.47,468.88c1.99-29.74,3.78-56.51,5.83-87.05,22.41,19.71,42.6,37.46,64.88,57.06-23.86,10.12-45.82,19.43-70.71,29.99Z"></path><path class="cls-19" d="m666.84,469.46c-24.78-10.48-46.51-19.68-70.56-29.85,21.78-19.33,41.94-37.23,64.6-57.35,2.05,29.95,3.9,57.01,5.96,87.19Z"></path><path class="cls-16" d="m135.79,483.67c25.86,7.72,51.71,15.44,77.23,23.06v65c-1.07.43-2.13.86-3.2,1.29-25.24-28.92-50.48-57.83-75.72-86.75.56-.87,1.13-1.74,1.69-2.6Z"></path><path class="cls-25" d="m577.37,572.12v-64.83c25.45-7.64,52.04-15.62,78.62-23.6.41.66.82,1.33,1.24,1.99-25.4,29.15-50.8,58.3-76.21,87.45-1.22-.34-2.43-.67-3.65-1.01Z"></path><path class="cls-15" d="m111.96,329.21c-18.91-21.66-36.95-42.33-55-62.99.45-.79.89-1.58,1.34-2.37,35.5,10.44,70.99,20.87,106.49,31.31.23,1,.46,2,.69,3-17.4,10.1-34.81,20.19-53.53,31.06Z"></path><path class="cls-4" d="m625.25,295.89c35.56-10.48,71.12-20.97,106.68-31.45.49.8.97,1.61,1.46,2.41-18.07,20.65-36.13,41.3-54.95,62.8-18.29-10.5-35.84-20.56-53.38-30.63.06-1.04.13-2.09.19-3.13Z"></path><path class="cls-21" d="m568.06,514.66v65.15c-24.31-9.38-48.12-18.57-75.22-29.03,25.84-13.67,48.69-25.76,71.54-37.85,1.23.57,2.45,1.15,3.68,1.72Z"></path><path class="cls-3" d="m294.05,551.53c-23.57,9.04-47.14,18.09-71.57,27.46v-68.38c25.97,13.64,48.94,25.7,71.91,37.76-.11,1.05-.23,2.11-.34,3.16Z"></path></g></g></g></g></svg>